<?xml version="1.0" encoding="UTF-8" standalone="no"?>
<svg
   width="512"
   height="512"
   version="1"
   viewBox="360 0 512 512"
   id="svg5"
   sodipodi:docname="emblem.svg"
   xml:space="preserve"
   inkscape:version="1.3.2 (091e20e, 2023-11-25)"
   inkscape:export-filename="emblem_512x512.png"
   inkscape:export-xdpi="96"
   inkscape:export-ydpi="96"
   xmlns:inkscape="http://www.inkscape.org/namespaces/inkscape"
   xmlns:sodipodi="http://sodipodi.sourceforge.net/DTD/sodipodi-0.dtd"
   xmlns="http://www.w3.org/2000/svg"
   xmlns:svg="http://www.w3.org/2000/svg"
   xmlns:rdf="http://www.w3.org/1999/02/22-rdf-syntax-ns#"
   xmlns:cc="http://creativecommons.org/ns#"
   xmlns:dc="http://purl.org/dc/elements/1.1/"><defs
     id="defs5" /><sodipodi:namedview
     id="namedview5"
     pagecolor="#ffffff"
     bordercolor="#666666"
     borderopacity="1.0"
     inkscape:showpageshadow="2"
     inkscape:pageopacity="0.0"
     inkscape:pagecheckerboard="0"
     inkscape:deskcolor="#d1d1d1"
     inkscape:zoom="1.8339844"
     inkscape:cx="11.450479"
     inkscape:cy="110.1427"
     inkscape:window-width="3840"
     inkscape:window-height="2072"
     inkscape:window-x="0"
     inkscape:window-y="0"
     inkscape:window-maximized="1"
     inkscape:current-layer="svg5" /><metadata
     id="metadata1"><rdf:RDF><cc:Work
         rdf:about=""><dc:format>image/svg+xml</dc:format><dc:type
           rdf:resource="http://purl.org/dc/dcmitype/StillImage" /></cc:Work></rdf:RDF></metadata><path
     class="clr-i-solid clr-i-solid-path-1"
     d="m 829.33329,28.444443 h -155.0222 a 14.222224,14.222224 0 0 0 0,28.444443 h 121.31558 l -125.44,127.999994 A 14.23093,14.23093 0 1 0 690.52439,204.8 L 815.11107,77.653329 V 197.68889 a 14.222222,14.222222 0 0 0 28.44442,0 V 42.666665 a 14.222222,14.222222 0 0 0 -14.2222,-14.222222 z"
     id="path1-36"
     style="stroke-width:14.2222" /><path
     class="clr-i-solid clr-i-solid-path-2"
     d="m 537.20886,152.60445 a 14.222222,14.222222 0 0 0 -14.22222,0 l -123.44888,71.11113 131.12888,74.9511 130.70222,-74.80888 z"
     id="path2"
     style="stroke-width:14.2222" /><path
     class="clr-i-solid clr-i-solid-path-3"
     d="m 388.44442,394.38222 a 14.222222,14.222222 0 0 0 7.11111,12.37331 l 120.88889,69.11998 V 319.4311 l -128,-73.6711 z"
     id="path3"
     style="stroke-width:14.2222" /><path
     class="clr-i-solid clr-i-solid-path-4"
     d="m 544.88886,475.87551 120.8889,-69.11998 a 14.222222,14.222222 0 0 0 7.11112,-12.37331 V 245.90221 l -128.00002,73.24447 z"
     id="path4"
     style="stroke-width:14.2222" /><rect
     x="360"
     y="0"
     width="512"
     height="512"
     fill-opacity="0"
     id="rect4"
     style="stroke-width:14.2222" /><path
     fill="#000000"
     fill-rule="evenodd"
     d="M 644.17937,92.857617 539.19154,134.92742 c -4.66411,1.86883 -5.00298,5.44113 -0.66911,7.94391 l 38.40979,22.18151 -80.94284,43.01689 c -4.45571,2.36815 -4.4995,6.334 -0.11393,8.86665 l 52.86508,30.52937 c 2.22133,1.28282 5.45986,0.9478 7.31791,-0.69949 l 90.96082,-80.64195 c 3.76528,-3.33824 3.27787,-8.05027 -1.05623,-10.5532 l -29.15753,-16.83835 45.21566,-35.57158 23.37703,13.50015 c 2.56592,1.4818 4.63459,0.29636 4.62102,-2.61235 l -0.18227,-38.890086 c -0.0138,-2.924582 -2.51111,-5.307498 -5.41558,-5.321581 l -70.04664,-0.341797 c -5.93182,-0.02904 -6.57251,2.354434 -1.49286,5.287911 z"
     id="path1"
     style="fill:#ffffff;fill-opacity:1;stroke:#333333;stroke-width:10.6833;stroke-opacity:1" /></svg>
